<mxfile host="Electron" agent="Mozilla/5.0 (Windows NT 10.0; Win64; x64) AppleWebKit/537.36 (KHTML, like Gecko) draw.io/28.0.6 Chrome/138.0.7204.100 Electron/37.2.3 Safari/537.36" version="28.0.6">
  <diagram name="Page-1" id="98i2WBAldwoyOvlq1uC4">
    <mxGraphModel dx="9680" dy="4205" grid="1" gridSize="10" guides="1" tooltips="1" connect="1" arrows="1" fold="1" page="1" pageScale="1" pageWidth="850" pageHeight="1100" background="none" math="0" shadow="1">
      <root>
        <mxCell id="0" />
        <mxCell id="1" parent="0" />
        <mxCell id="5RYKfQcQYVmvj1kTy-Aw-5" value="&lt;font style=&quot;font-size: 24px;&quot;&gt;Client&lt;/font&gt;" style="ellipse;whiteSpace=wrap;html=1;strokeWidth=5;" parent="1" vertex="1">
          <mxGeometry x="-200" y="2040" width="140" height="70" as="geometry" />
        </mxCell>
        <mxCell id="5RYKfQcQYVmvj1kTy-Aw-12" value="&lt;font style=&quot;font-size: 24px;&quot;&gt;Security&lt;/font&gt;" style="ellipse;whiteSpace=wrap;html=1;strokeWidth=5;" parent="1" vertex="1">
          <mxGeometry x="-20" y="2040" width="140" height="70" as="geometry" />
        </mxCell>
        <mxCell id="5RYKfQcQYVmvj1kTy-Aw-13" value="&lt;font style=&quot;font-size: 24px;&quot;&gt;Report Anaysis&lt;/font&gt;" style="ellipse;whiteSpace=wrap;html=1;strokeWidth=5;" parent="1" vertex="1">
          <mxGeometry x="150" y="2040" width="140" height="70" as="geometry" />
        </mxCell>
        <mxCell id="5RYKfQcQYVmvj1kTy-Aw-14" value="&lt;font style=&quot;font-size: 24px;&quot;&gt;Package&lt;br&gt;&lt;/font&gt;&lt;div&gt;&lt;br&gt;&lt;/div&gt;" style="ellipse;whiteSpace=wrap;html=1;strokeWidth=5;" parent="1" vertex="1">
          <mxGeometry x="320" y="2040" width="140" height="70" as="geometry" />
        </mxCell>
        <mxCell id="5RYKfQcQYVmvj1kTy-Aw-15" value="&lt;font style=&quot;font-size: 24px;&quot;&gt;Feedback&lt;/font&gt;" style="ellipse;whiteSpace=wrap;html=1;strokeWidth=5;" parent="1" vertex="1">
          <mxGeometry x="510" y="2040" width="140" height="70" as="geometry" />
        </mxCell>
        <mxCell id="5RYKfQcQYVmvj1kTy-Aw-24" value="&lt;font style=&quot;font-size: 24px;&quot;&gt;Finance&lt;/font&gt;" style="ellipse;whiteSpace=wrap;html=1;strokeWidth=5;" parent="1" vertex="1">
          <mxGeometry x="860" y="2040" width="140" height="70" as="geometry" />
        </mxCell>
        <mxCell id="5RYKfQcQYVmvj1kTy-Aw-28" value="&lt;font style=&quot;font-size: 24px;&quot;&gt;Chat&lt;/font&gt;&lt;div&gt;&lt;br&gt;&lt;/div&gt;" style="ellipse;whiteSpace=wrap;html=1;strokeWidth=5;" parent="1" vertex="1">
          <mxGeometry x="1710" y="2510" width="140" height="70" as="geometry" />
        </mxCell>
        <mxCell id="NRBMkL1OBzcQJpQFI0O--3" value="" style="edgeStyle=orthogonalEdgeStyle;rounded=0;orthogonalLoop=1;jettySize=auto;html=1;strokeWidth=5;" parent="1" source="5RYKfQcQYVmvj1kTy-Aw-34" target="5RYKfQcQYVmvj1kTy-Aw-35" edge="1">
          <mxGeometry relative="1" as="geometry" />
        </mxCell>
        <mxCell id="5RYKfQcQYVmvj1kTy-Aw-34" value="&lt;font style=&quot;font-size: 24px;&quot;&gt;About Us&lt;/font&gt;&lt;div&gt;&lt;br&gt;&lt;/div&gt;" style="ellipse;whiteSpace=wrap;html=1;strokeWidth=5;" parent="1" vertex="1">
          <mxGeometry x="1700" y="2600" width="160" height="60" as="geometry" />
        </mxCell>
        <mxCell id="5RYKfQcQYVmvj1kTy-Aw-36" value="&lt;font style=&quot;font-size: 24px;&quot;&gt;Food&#39;&lt;/font&gt;&lt;div&gt;&lt;br&gt;&lt;/div&gt;" style="ellipse;whiteSpace=wrap;html=1;strokeWidth=5;" parent="1" vertex="1">
          <mxGeometry x="1710" y="1790" width="140" height="70" as="geometry" />
        </mxCell>
        <mxCell id="RMpWVRfSquwFkgEpWFyZ-4" style="edgeStyle=orthogonalEdgeStyle;rounded=0;orthogonalLoop=1;jettySize=auto;html=1;exitX=1;exitY=0.5;exitDx=0;exitDy=0;strokeWidth=5;" parent="1" source="5RYKfQcQYVmvj1kTy-Aw-37" target="RMpWVRfSquwFkgEpWFyZ-1" edge="1">
          <mxGeometry relative="1" as="geometry" />
        </mxCell>
        <mxCell id="5RYKfQcQYVmvj1kTy-Aw-37" value="&lt;font style=&quot;font-size: 24px;&quot;&gt;sound System&lt;/font&gt;&lt;div&gt;&lt;br&gt;&lt;/div&gt;" style="ellipse;whiteSpace=wrap;html=1;strokeWidth=5;" parent="1" vertex="1">
          <mxGeometry x="1710" y="1710" width="140" height="70" as="geometry" />
        </mxCell>
        <mxCell id="5RYKfQcQYVmvj1kTy-Aw-38" value="&lt;font style=&quot;font-size: 24px;&quot;&gt;Guest&lt;/font&gt;&lt;div&gt;&lt;br&gt;&lt;/div&gt;" style="ellipse;whiteSpace=wrap;html=1;strokeWidth=5;" parent="1" vertex="1">
          <mxGeometry x="1710" y="1630" width="140" height="70" as="geometry" />
        </mxCell>
        <mxCell id="RMpWVRfSquwFkgEpWFyZ-6" style="edgeStyle=orthogonalEdgeStyle;rounded=0;orthogonalLoop=1;jettySize=auto;html=1;exitX=1;exitY=0.5;exitDx=0;exitDy=0;strokeWidth=5;" parent="1" source="5RYKfQcQYVmvj1kTy-Aw-39" target="RMpWVRfSquwFkgEpWFyZ-1" edge="1">
          <mxGeometry relative="1" as="geometry" />
        </mxCell>
        <mxCell id="5RYKfQcQYVmvj1kTy-Aw-39" value="&lt;font style=&quot;font-size: 24px;&quot;&gt;Booking&lt;/font&gt;&lt;div&gt;&lt;br&gt;&lt;/div&gt;" style="ellipse;whiteSpace=wrap;html=1;strokeWidth=5;" parent="1" vertex="1">
          <mxGeometry x="1710" y="1540" width="140" height="70" as="geometry" />
        </mxCell>
        <mxCell id="5RYKfQcQYVmvj1kTy-Aw-41" value="&lt;font style=&quot;font-size: 24px;&quot;&gt;Gallery&lt;/font&gt;" style="ellipse;whiteSpace=wrap;html=1;strokeWidth=5;" parent="1" vertex="1">
          <mxGeometry x="680" y="2040" width="140" height="70" as="geometry" />
        </mxCell>
        <mxCell id="5RYKfQcQYVmvj1kTy-Aw-42" value="&lt;font style=&quot;font-size: 24px;&quot;&gt;Vendor&lt;/font&gt;" style="ellipse;whiteSpace=wrap;html=1;strokeWidth=5;" parent="1" vertex="1">
          <mxGeometry x="-830" y="2550" width="140" height="70" as="geometry" />
        </mxCell>
        <mxCell id="5RYKfQcQYVmvj1kTy-Aw-43" value="&lt;font style=&quot;font-size: 24px;&quot;&gt;Use Case&lt;/font&gt;" style="ellipse;whiteSpace=wrap;html=1;strokeWidth=5;" parent="1" vertex="1">
          <mxGeometry x="-640" y="2970" width="140" height="70" as="geometry" />
        </mxCell>
        <mxCell id="5RYKfQcQYVmvj1kTy-Aw-44" value="&lt;font style=&quot;font-size: 24px;&quot;&gt;Expense and budget&lt;/font&gt;" style="ellipse;whiteSpace=wrap;html=1;strokeWidth=5;" parent="1" vertex="1">
          <mxGeometry x="-620" y="3200" width="140" height="70" as="geometry" />
        </mxCell>
        <mxCell id="5RYKfQcQYVmvj1kTy-Aw-45" value="&lt;font style=&quot;font-size: 24px;&quot;&gt;Monitoring&lt;/font&gt;" style="ellipse;whiteSpace=wrap;html=1;strokeWidth=5;" parent="1" vertex="1">
          <mxGeometry x="-620" y="3300" width="140" height="70" as="geometry" />
        </mxCell>
        <mxCell id="5RYKfQcQYVmvj1kTy-Aw-46" value="&lt;font style=&quot;font-size: 24px;&quot;&gt;Dashboard&lt;/font&gt;" style="ellipse;whiteSpace=wrap;html=1;strokeWidth=5;" parent="1" vertex="1">
          <mxGeometry x="1430" y="2040" width="140" height="70" as="geometry" />
        </mxCell>
        <mxCell id="NRBMkL1OBzcQJpQFI0O--4" value="" style="edgeStyle=orthogonalEdgeStyle;rounded=0;orthogonalLoop=1;jettySize=auto;html=1;strokeWidth=5;" parent="1" source="5RYKfQcQYVmvj1kTy-Aw-47" target="5RYKfQcQYVmvj1kTy-Aw-43" edge="1">
          <mxGeometry relative="1" as="geometry" />
        </mxCell>
        <mxCell id="5RYKfQcQYVmvj1kTy-Aw-47" value="&lt;font style=&quot;font-size: 24px;&quot;&gt;view&lt;/font&gt;" style="ellipse;whiteSpace=wrap;html=1;strokeWidth=5;" parent="1" vertex="1">
          <mxGeometry x="-640" y="2870" width="140" height="70" as="geometry" />
        </mxCell>
        <mxCell id="5RYKfQcQYVmvj1kTy-Aw-48" value="&lt;font style=&quot;font-size: 24px;&quot;&gt;Tracking&lt;/font&gt;" style="ellipse;whiteSpace=wrap;html=1;strokeWidth=5;" parent="1" vertex="1">
          <mxGeometry x="-630" y="2550" width="140" height="70" as="geometry" />
        </mxCell>
        <mxCell id="GL6uxgAYJIIQpSZrVHLU-10" value="&lt;font style=&quot;font-size: 24px;&quot;&gt;Venue&lt;/font&gt;&lt;div&gt;&lt;span style=&quot;color: rgba(0, 0, 0, 0); font-family: monospace; text-align: start; text-wrap-mode: nowrap;&quot;&gt;&lt;font size=&quot;3&quot;&gt;%3CmxGraphModel%3E%3Croot%3E%3CmxCell%20id%3D%220%22%2F%3E%3CmxCell%20id%3D%221%22%20parent%3D%220%22%2F%3E%3CmxCell%20id%3D%222%22%20value%3D%22Use%20Case%22%20style%3D%22ellipse%3BwhiteSpace%3Dwrap%3Bhtml%3D1%3B%22%20vertex%3D%221%22%20parent%3D%221%22%3E%3CmxGeometry%20x%3D%22-440%22%20y%3D%221960%22%20width%3D%22140%22%20height%3D%2270%22%20as%3D%22geometry%22%2F%3E%3C%2FmxCell%3E%3C%2Froot%3E%3C%2FmxGraphModel%3E&lt;/font&gt;&lt;/span&gt;&lt;/div&gt;" style="ellipse;whiteSpace=wrap;html=1;strokeWidth=5;" parent="1" vertex="1">
          <mxGeometry x="-1020" y="2550" width="140" height="70" as="geometry" />
        </mxCell>
        <mxCell id="GL6uxgAYJIIQpSZrVHLU-13" value="&lt;font style=&quot;font-size: 24px;&quot;&gt;Paymrnt&lt;/font&gt;" style="ellipse;whiteSpace=wrap;html=1;strokeWidth=5;" parent="1" vertex="1">
          <mxGeometry x="1060" y="2040" width="140" height="70" as="geometry" />
        </mxCell>
        <mxCell id="2cAelRh5ny395EdpJnny-1" value="" style="edgeStyle=orthogonalEdgeStyle;rounded=0;orthogonalLoop=1;jettySize=auto;html=1;strokeWidth=5;" parent="1" source="GL6uxgAYJIIQpSZrVHLU-14" target="GL6uxgAYJIIQpSZrVHLU-16" edge="1">
          <mxGeometry relative="1" as="geometry" />
        </mxCell>
        <mxCell id="GL6uxgAYJIIQpSZrVHLU-14" value="&lt;font style=&quot;font-size: 24px;&quot;&gt;System Settings and configuration&lt;/font&gt;" style="ellipse;whiteSpace=wrap;html=1;strokeWidth=5;" parent="1" vertex="1">
          <mxGeometry x="-630" y="1880" width="200" height="100" as="geometry" />
        </mxCell>
        <mxCell id="GL6uxgAYJIIQpSZrVHLU-15" value="&lt;font style=&quot;font-size: 24px;&quot;&gt;User role&amp;nbsp;&lt;/font&gt;" style="ellipse;whiteSpace=wrap;html=1;strokeWidth=5;" parent="1" vertex="1">
          <mxGeometry x="-630" y="2250" width="140" height="70" as="geometry" />
        </mxCell>
        <mxCell id="GL6uxgAYJIIQpSZrVHLU-17" value="&lt;font style=&quot;font-size: 24px;&quot;&gt;Approval Panel&lt;/font&gt;" style="ellipse;whiteSpace=wrap;html=1;strokeWidth=5;" parent="1" vertex="1">
          <mxGeometry x="-620" y="760" width="140" height="70" as="geometry" />
        </mxCell>
        <mxCell id="GL6uxgAYJIIQpSZrVHLU-20" value="&lt;font style=&quot;font-size: 24px;&quot;&gt;Performance&lt;/font&gt;" style="ellipse;whiteSpace=wrap;html=1;strokeWidth=5;" parent="1" vertex="1">
          <mxGeometry x="-620" y="1070" width="140" height="70" as="geometry" />
        </mxCell>
        <mxCell id="GL6uxgAYJIIQpSZrVHLU-21" value="&lt;font style=&quot;font-size: 24px;&quot;&gt;Priorities&lt;/font&gt;" style="ellipse;whiteSpace=wrap;html=1;strokeWidth=5;" parent="1" vertex="1">
          <mxGeometry x="-620" y="1260" width="140" height="70" as="geometry" />
        </mxCell>
        <mxCell id="GL6uxgAYJIIQpSZrVHLU-22" value="&lt;font style=&quot;font-size: 24px;&quot;&gt;Notification&lt;/font&gt;" style="ellipse;whiteSpace=wrap;html=1;strokeWidth=5;" parent="1" vertex="1">
          <mxGeometry x="-620" y="1160" width="140" height="70" as="geometry" />
        </mxCell>
        <mxCell id="GL6uxgAYJIIQpSZrVHLU-23" value="&lt;font style=&quot;font-size: 24px;&quot;&gt;Hostory&lt;/font&gt;" style="ellipse;whiteSpace=wrap;html=1;strokeWidth=5;" parent="1" vertex="1">
          <mxGeometry x="-620" y="860" width="140" height="70" as="geometry" />
        </mxCell>
        <mxCell id="GL6uxgAYJIIQpSZrVHLU-24" value="&lt;font style=&quot;font-size: 24px;&quot;&gt;Management&lt;/font&gt;" style="ellipse;whiteSpace=wrap;html=1;strokeWidth=5;" parent="1" vertex="1">
          <mxGeometry x="-620" y="670" width="150" height="80" as="geometry" />
        </mxCell>
        <mxCell id="GL6uxgAYJIIQpSZrVHLU-25" value="&lt;font style=&quot;font-size: 24px;&quot;&gt;System security&lt;/font&gt;" style="ellipse;whiteSpace=wrap;html=1;strokeWidth=5;" parent="1" vertex="1">
          <mxGeometry x="-630" y="2150" width="140" height="70" as="geometry" />
        </mxCell>
        <mxCell id="GL6uxgAYJIIQpSZrVHLU-26" value="&lt;font style=&quot;font-size: 24px;&quot;&gt;Log in&lt;/font&gt;" style="ellipse;whiteSpace=wrap;html=1;strokeWidth=5;" parent="1" vertex="1">
          <mxGeometry x="1240" y="2040" width="140" height="70" as="geometry" />
        </mxCell>
        <mxCell id="GL6uxgAYJIIQpSZrVHLU-75" style="edgeStyle=orthogonalEdgeStyle;rounded=0;orthogonalLoop=1;jettySize=auto;html=1;exitX=0;exitY=1;exitDx=0;exitDy=0;exitPerimeter=0;entryX=0.5;entryY=0;entryDx=0;entryDy=0;strokeWidth=5;" parent="1" source="GL6uxgAYJIIQpSZrVHLU-29" target="GL6uxgAYJIIQpSZrVHLU-10" edge="1">
          <mxGeometry relative="1" as="geometry" />
        </mxCell>
        <mxCell id="GL6uxgAYJIIQpSZrVHLU-77" style="edgeStyle=orthogonalEdgeStyle;rounded=0;orthogonalLoop=1;jettySize=auto;html=1;exitX=0;exitY=1;exitDx=0;exitDy=0;exitPerimeter=0;entryX=0.5;entryY=0;entryDx=0;entryDy=0;strokeWidth=5;" parent="1" source="GL6uxgAYJIIQpSZrVHLU-29" target="5RYKfQcQYVmvj1kTy-Aw-42" edge="1">
          <mxGeometry relative="1" as="geometry" />
        </mxCell>
        <mxCell id="GL6uxgAYJIIQpSZrVHLU-78" style="edgeStyle=orthogonalEdgeStyle;rounded=0;orthogonalLoop=1;jettySize=auto;html=1;exitX=0;exitY=1;exitDx=0;exitDy=0;exitPerimeter=0;entryX=0.5;entryY=0;entryDx=0;entryDy=0;strokeWidth=5;" parent="1" source="GL6uxgAYJIIQpSZrVHLU-29" target="5RYKfQcQYVmvj1kTy-Aw-48" edge="1">
          <mxGeometry relative="1" as="geometry" />
        </mxCell>
        <mxCell id="GL6uxgAYJIIQpSZrVHLU-84" style="edgeStyle=orthogonalEdgeStyle;rounded=0;orthogonalLoop=1;jettySize=auto;html=1;exitX=0;exitY=0.3333333333333333;exitDx=0;exitDy=0;exitPerimeter=0;entryX=0.5;entryY=1;entryDx=0;entryDy=0;strokeWidth=5;" parent="1" source="GL6uxgAYJIIQpSZrVHLU-29" target="GL6uxgAYJIIQpSZrVHLU-81" edge="1">
          <mxGeometry relative="1" as="geometry" />
        </mxCell>
        <mxCell id="GL6uxgAYJIIQpSZrVHLU-91" style="edgeStyle=orthogonalEdgeStyle;rounded=0;orthogonalLoop=1;jettySize=auto;html=1;exitX=1;exitY=0.3333333333333333;exitDx=0;exitDy=0;exitPerimeter=0;entryX=0;entryY=0;entryDx=0;entryDy=0;strokeWidth=5;" parent="1" source="GL6uxgAYJIIQpSZrVHLU-29" target="5RYKfQcQYVmvj1kTy-Aw-5" edge="1">
          <mxGeometry relative="1" as="geometry">
            <Array as="points">
              <mxPoint x="-169" y="1987" />
            </Array>
          </mxGeometry>
        </mxCell>
        <mxCell id="GL6uxgAYJIIQpSZrVHLU-92" style="edgeStyle=orthogonalEdgeStyle;rounded=0;orthogonalLoop=1;jettySize=auto;html=1;exitX=1;exitY=0.3333333333333333;exitDx=0;exitDy=0;exitPerimeter=0;entryX=0;entryY=0;entryDx=0;entryDy=0;strokeWidth=5;" parent="1" source="GL6uxgAYJIIQpSZrVHLU-29" target="5RYKfQcQYVmvj1kTy-Aw-12" edge="1">
          <mxGeometry relative="1" as="geometry">
            <Array as="points">
              <mxPoint x="1" y="1987" />
            </Array>
          </mxGeometry>
        </mxCell>
        <mxCell id="GL6uxgAYJIIQpSZrVHLU-93" style="edgeStyle=orthogonalEdgeStyle;rounded=0;orthogonalLoop=1;jettySize=auto;html=1;exitX=1;exitY=0.3333333333333333;exitDx=0;exitDy=0;exitPerimeter=0;entryX=0;entryY=0;entryDx=0;entryDy=0;strokeWidth=5;" parent="1" source="GL6uxgAYJIIQpSZrVHLU-29" target="5RYKfQcQYVmvj1kTy-Aw-13" edge="1">
          <mxGeometry relative="1" as="geometry">
            <Array as="points">
              <mxPoint x="170" y="1987" />
            </Array>
          </mxGeometry>
        </mxCell>
        <mxCell id="GL6uxgAYJIIQpSZrVHLU-94" style="edgeStyle=orthogonalEdgeStyle;rounded=0;orthogonalLoop=1;jettySize=auto;html=1;exitX=1;exitY=0.3333333333333333;exitDx=0;exitDy=0;exitPerimeter=0;entryX=0;entryY=0;entryDx=0;entryDy=0;strokeWidth=5;" parent="1" source="GL6uxgAYJIIQpSZrVHLU-29" target="5RYKfQcQYVmvj1kTy-Aw-14" edge="1">
          <mxGeometry relative="1" as="geometry">
            <Array as="points">
              <mxPoint x="340" y="1987" />
            </Array>
          </mxGeometry>
        </mxCell>
        <mxCell id="GL6uxgAYJIIQpSZrVHLU-96" style="edgeStyle=orthogonalEdgeStyle;rounded=0;orthogonalLoop=1;jettySize=auto;html=1;exitX=1;exitY=0.3333333333333333;exitDx=0;exitDy=0;exitPerimeter=0;entryX=0;entryY=0;entryDx=0;entryDy=0;strokeWidth=5;" parent="1" source="GL6uxgAYJIIQpSZrVHLU-29" target="5RYKfQcQYVmvj1kTy-Aw-15" edge="1">
          <mxGeometry relative="1" as="geometry">
            <Array as="points">
              <mxPoint x="531" y="1987" />
            </Array>
          </mxGeometry>
        </mxCell>
        <mxCell id="GL6uxgAYJIIQpSZrVHLU-97" style="edgeStyle=orthogonalEdgeStyle;rounded=0;orthogonalLoop=1;jettySize=auto;html=1;exitX=1;exitY=0.3333333333333333;exitDx=0;exitDy=0;exitPerimeter=0;entryX=0;entryY=0;entryDx=0;entryDy=0;strokeWidth=5;" parent="1" source="GL6uxgAYJIIQpSZrVHLU-29" target="5RYKfQcQYVmvj1kTy-Aw-41" edge="1">
          <mxGeometry relative="1" as="geometry">
            <Array as="points">
              <mxPoint x="700" y="1987" />
            </Array>
          </mxGeometry>
        </mxCell>
        <mxCell id="GL6uxgAYJIIQpSZrVHLU-98" style="edgeStyle=orthogonalEdgeStyle;rounded=0;orthogonalLoop=1;jettySize=auto;html=1;exitX=1;exitY=0.3333333333333333;exitDx=0;exitDy=0;exitPerimeter=0;entryX=0;entryY=0;entryDx=0;entryDy=0;strokeWidth=5;" parent="1" source="GL6uxgAYJIIQpSZrVHLU-29" target="5RYKfQcQYVmvj1kTy-Aw-24" edge="1">
          <mxGeometry relative="1" as="geometry">
            <Array as="points">
              <mxPoint x="880" y="1987" />
            </Array>
          </mxGeometry>
        </mxCell>
        <mxCell id="GL6uxgAYJIIQpSZrVHLU-99" style="edgeStyle=orthogonalEdgeStyle;rounded=0;orthogonalLoop=1;jettySize=auto;html=1;exitX=1;exitY=0.3333333333333333;exitDx=0;exitDy=0;exitPerimeter=0;entryX=0;entryY=0;entryDx=0;entryDy=0;strokeWidth=5;" parent="1" source="GL6uxgAYJIIQpSZrVHLU-29" target="GL6uxgAYJIIQpSZrVHLU-13" edge="1">
          <mxGeometry relative="1" as="geometry">
            <Array as="points">
              <mxPoint x="1080" y="1987" />
            </Array>
          </mxGeometry>
        </mxCell>
        <mxCell id="GL6uxgAYJIIQpSZrVHLU-100" style="edgeStyle=orthogonalEdgeStyle;rounded=0;orthogonalLoop=1;jettySize=auto;html=1;exitX=1;exitY=0.3333333333333333;exitDx=0;exitDy=0;exitPerimeter=0;entryX=0;entryY=0;entryDx=0;entryDy=0;strokeWidth=5;" parent="1" source="GL6uxgAYJIIQpSZrVHLU-29" target="GL6uxgAYJIIQpSZrVHLU-26" edge="1">
          <mxGeometry relative="1" as="geometry">
            <Array as="points">
              <mxPoint x="1260" y="1987" />
            </Array>
          </mxGeometry>
        </mxCell>
        <mxCell id="GL6uxgAYJIIQpSZrVHLU-101" style="edgeStyle=orthogonalEdgeStyle;rounded=0;orthogonalLoop=1;jettySize=auto;html=1;exitX=1;exitY=0.3333333333333333;exitDx=0;exitDy=0;exitPerimeter=0;entryX=0;entryY=0;entryDx=0;entryDy=0;strokeWidth=5;" parent="1" source="GL6uxgAYJIIQpSZrVHLU-29" target="5RYKfQcQYVmvj1kTy-Aw-46" edge="1">
          <mxGeometry relative="1" as="geometry">
            <Array as="points">
              <mxPoint x="1450" y="1987" />
            </Array>
          </mxGeometry>
        </mxCell>
        <mxCell id="RMpWVRfSquwFkgEpWFyZ-10" style="edgeStyle=orthogonalEdgeStyle;rounded=0;orthogonalLoop=1;jettySize=auto;html=1;exitX=0.75;exitY=0.1;exitDx=0;exitDy=0;exitPerimeter=0;strokeWidth=5;" parent="1" source="GL6uxgAYJIIQpSZrVHLU-29" target="GL6uxgAYJIIQpSZrVHLU-14" edge="1">
          <mxGeometry relative="1" as="geometry">
            <Array as="points">
              <mxPoint x="-950" y="1891" />
              <mxPoint x="-950" y="1920" />
            </Array>
          </mxGeometry>
        </mxCell>
        <mxCell id="RMpWVRfSquwFkgEpWFyZ-13" style="edgeStyle=orthogonalEdgeStyle;rounded=0;orthogonalLoop=1;jettySize=auto;html=1;exitX=0.75;exitY=0.1;exitDx=0;exitDy=0;exitPerimeter=0;entryX=0;entryY=0.5;entryDx=0;entryDy=0;strokeWidth=5;" parent="1" source="GL6uxgAYJIIQpSZrVHLU-29" target="GL6uxgAYJIIQpSZrVHLU-16" edge="1">
          <mxGeometry relative="1" as="geometry">
            <Array as="points">
              <mxPoint x="-950" y="1891" />
              <mxPoint x="-950" y="1825" />
            </Array>
          </mxGeometry>
        </mxCell>
        <mxCell id="RMpWVRfSquwFkgEpWFyZ-14" style="edgeStyle=orthogonalEdgeStyle;rounded=0;orthogonalLoop=1;jettySize=auto;html=1;exitX=1;exitY=1;exitDx=0;exitDy=0;exitPerimeter=0;entryX=0;entryY=0.5;entryDx=0;entryDy=0;strokeWidth=5;" parent="1" source="GL6uxgAYJIIQpSZrVHLU-29" target="GL6uxgAYJIIQpSZrVHLU-25" edge="1">
          <mxGeometry relative="1" as="geometry">
            <Array as="points">
              <mxPoint x="-1240" y="2280" />
              <mxPoint x="-950" y="2280" />
              <mxPoint x="-950" y="2185" />
            </Array>
          </mxGeometry>
        </mxCell>
        <mxCell id="RMpWVRfSquwFkgEpWFyZ-16" style="edgeStyle=orthogonalEdgeStyle;rounded=0;orthogonalLoop=1;jettySize=auto;html=1;exitX=1;exitY=1;exitDx=0;exitDy=0;exitPerimeter=0;strokeWidth=5;" parent="1" source="GL6uxgAYJIIQpSZrVHLU-29" target="GL6uxgAYJIIQpSZrVHLU-15" edge="1">
          <mxGeometry relative="1" as="geometry">
            <Array as="points">
              <mxPoint x="-1240" y="2280" />
            </Array>
          </mxGeometry>
        </mxCell>
        <mxCell id="GL6uxgAYJIIQpSZrVHLU-29" value="&lt;font&gt;ADMIN&lt;/font&gt;" style="shape=umlActor;verticalLabelPosition=bottom;verticalAlign=top;html=1;strokeWidth=5;fontStyle=1;fontSize=30;" parent="1" vertex="1">
          <mxGeometry x="-1460" y="1850" width="220" height="410" as="geometry" />
        </mxCell>
        <mxCell id="GL6uxgAYJIIQpSZrVHLU-40" style="edgeStyle=orthogonalEdgeStyle;rounded=0;orthogonalLoop=1;jettySize=auto;html=1;exitX=0.5;exitY=0;exitDx=0;exitDy=0;exitPerimeter=0;entryX=0;entryY=0.5;entryDx=0;entryDy=0;strokeWidth=5;" parent="1" source="GL6uxgAYJIIQpSZrVHLU-31" target="GL6uxgAYJIIQpSZrVHLU-24" edge="1">
          <mxGeometry relative="1" as="geometry" />
        </mxCell>
        <mxCell id="GL6uxgAYJIIQpSZrVHLU-41" style="edgeStyle=orthogonalEdgeStyle;rounded=0;orthogonalLoop=1;jettySize=auto;html=1;exitX=0.5;exitY=0;exitDx=0;exitDy=0;exitPerimeter=0;entryX=0;entryY=0.5;entryDx=0;entryDy=0;strokeWidth=5;" parent="1" source="GL6uxgAYJIIQpSZrVHLU-31" target="GL6uxgAYJIIQpSZrVHLU-17" edge="1">
          <mxGeometry relative="1" as="geometry" />
        </mxCell>
        <mxCell id="GL6uxgAYJIIQpSZrVHLU-85" style="edgeStyle=orthogonalEdgeStyle;rounded=0;orthogonalLoop=1;jettySize=auto;html=1;exitX=0;exitY=1;exitDx=0;exitDy=0;exitPerimeter=0;entryX=0.5;entryY=0;entryDx=0;entryDy=0;strokeWidth=5;" parent="1" source="GL6uxgAYJIIQpSZrVHLU-31" target="GL6uxgAYJIIQpSZrVHLU-81" edge="1">
          <mxGeometry relative="1" as="geometry">
            <Array as="points">
              <mxPoint x="-1460" y="1400" />
              <mxPoint x="-950" y="1400" />
            </Array>
          </mxGeometry>
        </mxCell>
        <mxCell id="GL6uxgAYJIIQpSZrVHLU-104" style="edgeStyle=orthogonalEdgeStyle;rounded=0;orthogonalLoop=1;jettySize=auto;html=1;exitX=0;exitY=1;exitDx=0;exitDy=0;exitPerimeter=0;entryX=0.5;entryY=0;entryDx=0;entryDy=0;strokeWidth=5;" parent="1" source="GL6uxgAYJIIQpSZrVHLU-31" target="5RYKfQcQYVmvj1kTy-Aw-5" edge="1">
          <mxGeometry relative="1" as="geometry">
            <Array as="points">
              <mxPoint x="-1460" y="1400" />
              <mxPoint x="-130" y="1400" />
            </Array>
          </mxGeometry>
        </mxCell>
        <mxCell id="GL6uxgAYJIIQpSZrVHLU-105" style="edgeStyle=orthogonalEdgeStyle;rounded=0;orthogonalLoop=1;jettySize=auto;html=1;exitX=0;exitY=1;exitDx=0;exitDy=0;exitPerimeter=0;entryX=0.5;entryY=0;entryDx=0;entryDy=0;strokeWidth=5;" parent="1" source="GL6uxgAYJIIQpSZrVHLU-31" target="5RYKfQcQYVmvj1kTy-Aw-12" edge="1">
          <mxGeometry relative="1" as="geometry">
            <Array as="points">
              <mxPoint x="-1460" y="1400" />
              <mxPoint x="50" y="1400" />
            </Array>
          </mxGeometry>
        </mxCell>
        <mxCell id="GL6uxgAYJIIQpSZrVHLU-108" style="edgeStyle=orthogonalEdgeStyle;rounded=0;orthogonalLoop=1;jettySize=auto;html=1;exitX=0;exitY=1;exitDx=0;exitDy=0;exitPerimeter=0;entryX=0.5;entryY=0;entryDx=0;entryDy=0;strokeWidth=5;" parent="1" source="GL6uxgAYJIIQpSZrVHLU-31" target="5RYKfQcQYVmvj1kTy-Aw-13" edge="1">
          <mxGeometry relative="1" as="geometry">
            <Array as="points">
              <mxPoint x="-1460" y="1400" />
              <mxPoint x="220" y="1400" />
            </Array>
          </mxGeometry>
        </mxCell>
        <mxCell id="GL6uxgAYJIIQpSZrVHLU-109" style="edgeStyle=orthogonalEdgeStyle;rounded=0;orthogonalLoop=1;jettySize=auto;html=1;exitX=0;exitY=1;exitDx=0;exitDy=0;exitPerimeter=0;entryX=0.5;entryY=0;entryDx=0;entryDy=0;strokeWidth=5;" parent="1" source="GL6uxgAYJIIQpSZrVHLU-31" target="5RYKfQcQYVmvj1kTy-Aw-14" edge="1">
          <mxGeometry relative="1" as="geometry">
            <Array as="points">
              <mxPoint x="-1460" y="1400" />
              <mxPoint x="390" y="1400" />
            </Array>
          </mxGeometry>
        </mxCell>
        <mxCell id="GL6uxgAYJIIQpSZrVHLU-110" style="edgeStyle=orthogonalEdgeStyle;rounded=0;orthogonalLoop=1;jettySize=auto;html=1;exitX=0;exitY=1;exitDx=0;exitDy=0;exitPerimeter=0;entryX=0.5;entryY=0;entryDx=0;entryDy=0;strokeWidth=5;" parent="1" source="GL6uxgAYJIIQpSZrVHLU-31" target="5RYKfQcQYVmvj1kTy-Aw-15" edge="1">
          <mxGeometry relative="1" as="geometry">
            <Array as="points">
              <mxPoint x="-1460" y="1400" />
              <mxPoint x="580" y="1400" />
            </Array>
          </mxGeometry>
        </mxCell>
        <mxCell id="GL6uxgAYJIIQpSZrVHLU-111" style="edgeStyle=orthogonalEdgeStyle;rounded=0;orthogonalLoop=1;jettySize=auto;html=1;exitX=0;exitY=1;exitDx=0;exitDy=0;exitPerimeter=0;strokeWidth=5;" parent="1" source="GL6uxgAYJIIQpSZrVHLU-31" target="5RYKfQcQYVmvj1kTy-Aw-41" edge="1">
          <mxGeometry relative="1" as="geometry">
            <Array as="points">
              <mxPoint x="-1460" y="1400" />
              <mxPoint x="750" y="1400" />
            </Array>
          </mxGeometry>
        </mxCell>
        <mxCell id="GL6uxgAYJIIQpSZrVHLU-112" style="edgeStyle=orthogonalEdgeStyle;rounded=0;orthogonalLoop=1;jettySize=auto;html=1;exitX=0;exitY=1;exitDx=0;exitDy=0;exitPerimeter=0;entryX=0.5;entryY=0;entryDx=0;entryDy=0;strokeWidth=5;" parent="1" source="GL6uxgAYJIIQpSZrVHLU-31" target="5RYKfQcQYVmvj1kTy-Aw-24" edge="1">
          <mxGeometry relative="1" as="geometry">
            <Array as="points">
              <mxPoint x="-1460" y="1400" />
              <mxPoint x="930" y="1400" />
            </Array>
          </mxGeometry>
        </mxCell>
        <mxCell id="GL6uxgAYJIIQpSZrVHLU-113" style="edgeStyle=orthogonalEdgeStyle;rounded=0;orthogonalLoop=1;jettySize=auto;html=1;exitX=0;exitY=1;exitDx=0;exitDy=0;exitPerimeter=0;entryX=0.5;entryY=0;entryDx=0;entryDy=0;strokeWidth=5;" parent="1" source="GL6uxgAYJIIQpSZrVHLU-31" target="GL6uxgAYJIIQpSZrVHLU-13" edge="1">
          <mxGeometry relative="1" as="geometry">
            <Array as="points">
              <mxPoint x="-1460" y="1400" />
              <mxPoint x="1130" y="1400" />
            </Array>
          </mxGeometry>
        </mxCell>
        <mxCell id="GL6uxgAYJIIQpSZrVHLU-115" style="edgeStyle=orthogonalEdgeStyle;rounded=0;orthogonalLoop=1;jettySize=auto;html=1;exitX=0;exitY=1;exitDx=0;exitDy=0;exitPerimeter=0;entryX=0.5;entryY=0;entryDx=0;entryDy=0;strokeWidth=5;" parent="1" source="GL6uxgAYJIIQpSZrVHLU-31" target="GL6uxgAYJIIQpSZrVHLU-26" edge="1">
          <mxGeometry relative="1" as="geometry">
            <Array as="points">
              <mxPoint x="-1460" y="1400" />
              <mxPoint x="1310" y="1400" />
            </Array>
          </mxGeometry>
        </mxCell>
        <mxCell id="GL6uxgAYJIIQpSZrVHLU-116" style="edgeStyle=orthogonalEdgeStyle;rounded=0;orthogonalLoop=1;jettySize=auto;html=1;exitX=0;exitY=1;exitDx=0;exitDy=0;exitPerimeter=0;entryX=0.5;entryY=0;entryDx=0;entryDy=0;strokeWidth=5;" parent="1" source="GL6uxgAYJIIQpSZrVHLU-31" target="5RYKfQcQYVmvj1kTy-Aw-46" edge="1">
          <mxGeometry relative="1" as="geometry">
            <Array as="points">
              <mxPoint x="-1460" y="1400" />
              <mxPoint x="1500" y="1400" />
            </Array>
          </mxGeometry>
        </mxCell>
        <mxCell id="RMpWVRfSquwFkgEpWFyZ-17" style="edgeStyle=orthogonalEdgeStyle;rounded=0;orthogonalLoop=1;jettySize=auto;html=1;exitX=0.5;exitY=0;exitDx=0;exitDy=0;exitPerimeter=0;entryX=0;entryY=0.5;entryDx=0;entryDy=0;strokeWidth=5;" parent="1" source="GL6uxgAYJIIQpSZrVHLU-31" target="GL6uxgAYJIIQpSZrVHLU-23" edge="1">
          <mxGeometry relative="1" as="geometry" />
        </mxCell>
        <mxCell id="RMpWVRfSquwFkgEpWFyZ-18" style="edgeStyle=orthogonalEdgeStyle;rounded=0;orthogonalLoop=1;jettySize=auto;html=1;exitX=1;exitY=1;exitDx=0;exitDy=0;exitPerimeter=0;entryX=0;entryY=0.5;entryDx=0;entryDy=0;strokeWidth=5;" parent="1" source="GL6uxgAYJIIQpSZrVHLU-31" target="GL6uxgAYJIIQpSZrVHLU-21" edge="1">
          <mxGeometry relative="1" as="geometry" />
        </mxCell>
        <mxCell id="RMpWVRfSquwFkgEpWFyZ-19" style="edgeStyle=orthogonalEdgeStyle;rounded=0;orthogonalLoop=1;jettySize=auto;html=1;exitX=1;exitY=1;exitDx=0;exitDy=0;exitPerimeter=0;entryX=0;entryY=0.5;entryDx=0;entryDy=0;strokeWidth=5;" parent="1" source="GL6uxgAYJIIQpSZrVHLU-31" target="GL6uxgAYJIIQpSZrVHLU-22" edge="1">
          <mxGeometry relative="1" as="geometry" />
        </mxCell>
        <mxCell id="RMpWVRfSquwFkgEpWFyZ-21" style="edgeStyle=orthogonalEdgeStyle;rounded=0;orthogonalLoop=1;jettySize=auto;html=1;exitX=1;exitY=1;exitDx=0;exitDy=0;exitPerimeter=0;entryX=0;entryY=0.5;entryDx=0;entryDy=0;strokeWidth=5;" parent="1" source="GL6uxgAYJIIQpSZrVHLU-31" target="GL6uxgAYJIIQpSZrVHLU-20" edge="1">
          <mxGeometry relative="1" as="geometry" />
        </mxCell>
        <mxCell id="GL6uxgAYJIIQpSZrVHLU-31" value="&lt;font&gt;CEO&lt;/font&gt;" style="shape=umlActor;verticalLabelPosition=bottom;verticalAlign=top;html=1;strokeWidth=5;fontStyle=1;fontSize=30;" parent="1" vertex="1">
          <mxGeometry x="-1460" y="980" width="200" height="305" as="geometry" />
        </mxCell>
        <mxCell id="GL6uxgAYJIIQpSZrVHLU-76" style="edgeStyle=orthogonalEdgeStyle;rounded=0;orthogonalLoop=1;jettySize=auto;html=1;exitX=0;exitY=0.3333333333333333;exitDx=0;exitDy=0;exitPerimeter=0;entryX=0.5;entryY=1;entryDx=0;entryDy=0;strokeWidth=5;" parent="1" source="GL6uxgAYJIIQpSZrVHLU-53" target="GL6uxgAYJIIQpSZrVHLU-10" edge="1">
          <mxGeometry relative="1" as="geometry">
            <Array as="points">
              <mxPoint x="-1470" y="3037" />
              <mxPoint x="-1470" y="2770" />
              <mxPoint x="-950" y="2770" />
            </Array>
          </mxGeometry>
        </mxCell>
        <mxCell id="GL6uxgAYJIIQpSZrVHLU-79" style="edgeStyle=orthogonalEdgeStyle;rounded=0;orthogonalLoop=1;jettySize=auto;html=1;exitX=0;exitY=0.3333333333333333;exitDx=0;exitDy=0;exitPerimeter=0;entryX=0.5;entryY=1;entryDx=0;entryDy=0;strokeWidth=5;" parent="1" source="GL6uxgAYJIIQpSZrVHLU-53" target="5RYKfQcQYVmvj1kTy-Aw-42" edge="1">
          <mxGeometry relative="1" as="geometry">
            <Array as="points">
              <mxPoint x="-1470" y="3037" />
              <mxPoint x="-1470" y="2770" />
              <mxPoint x="-760" y="2770" />
            </Array>
          </mxGeometry>
        </mxCell>
        <mxCell id="GL6uxgAYJIIQpSZrVHLU-80" style="edgeStyle=orthogonalEdgeStyle;rounded=0;orthogonalLoop=1;jettySize=auto;html=1;exitX=0;exitY=0.3333333333333333;exitDx=0;exitDy=0;exitPerimeter=0;entryX=0.5;entryY=1;entryDx=0;entryDy=0;strokeWidth=5;" parent="1" source="GL6uxgAYJIIQpSZrVHLU-53" target="5RYKfQcQYVmvj1kTy-Aw-48" edge="1">
          <mxGeometry relative="1" as="geometry">
            <Array as="points">
              <mxPoint x="-1470" y="3037" />
              <mxPoint x="-1470" y="2770" />
              <mxPoint x="-560" y="2770" />
            </Array>
          </mxGeometry>
        </mxCell>
        <mxCell id="GL6uxgAYJIIQpSZrVHLU-117" style="edgeStyle=orthogonalEdgeStyle;rounded=0;orthogonalLoop=1;jettySize=auto;html=1;exitX=0;exitY=0.3333333333333333;exitDx=0;exitDy=0;exitPerimeter=0;entryX=0.5;entryY=1;entryDx=0;entryDy=0;strokeWidth=5;" parent="1" source="GL6uxgAYJIIQpSZrVHLU-53" target="5RYKfQcQYVmvj1kTy-Aw-5" edge="1">
          <mxGeometry relative="1" as="geometry">
            <Array as="points">
              <mxPoint x="-1470" y="3037" />
              <mxPoint x="-1470" y="2770" />
              <mxPoint x="-130" y="2770" />
            </Array>
          </mxGeometry>
        </mxCell>
        <mxCell id="GL6uxgAYJIIQpSZrVHLU-119" style="edgeStyle=orthogonalEdgeStyle;rounded=0;orthogonalLoop=1;jettySize=auto;html=1;exitX=0;exitY=0.3333333333333333;exitDx=0;exitDy=0;exitPerimeter=0;entryX=0.5;entryY=1;entryDx=0;entryDy=0;strokeWidth=5;" parent="1" source="GL6uxgAYJIIQpSZrVHLU-53" target="5RYKfQcQYVmvj1kTy-Aw-12" edge="1">
          <mxGeometry relative="1" as="geometry">
            <Array as="points">
              <mxPoint x="-1470" y="3037" />
              <mxPoint x="-1470" y="2770" />
              <mxPoint x="50" y="2770" />
            </Array>
          </mxGeometry>
        </mxCell>
        <mxCell id="GL6uxgAYJIIQpSZrVHLU-120" style="edgeStyle=orthogonalEdgeStyle;rounded=0;orthogonalLoop=1;jettySize=auto;html=1;exitX=0;exitY=0.3333333333333333;exitDx=0;exitDy=0;exitPerimeter=0;entryX=0.5;entryY=1;entryDx=0;entryDy=0;strokeWidth=5;" parent="1" source="GL6uxgAYJIIQpSZrVHLU-53" target="5RYKfQcQYVmvj1kTy-Aw-13" edge="1">
          <mxGeometry relative="1" as="geometry">
            <Array as="points">
              <mxPoint x="-1470" y="3037" />
              <mxPoint x="-1470" y="2770" />
              <mxPoint x="220" y="2770" />
            </Array>
          </mxGeometry>
        </mxCell>
        <mxCell id="GL6uxgAYJIIQpSZrVHLU-121" style="edgeStyle=orthogonalEdgeStyle;rounded=0;orthogonalLoop=1;jettySize=auto;html=1;exitX=0;exitY=0.3333333333333333;exitDx=0;exitDy=0;exitPerimeter=0;entryX=0.5;entryY=1;entryDx=0;entryDy=0;strokeWidth=5;" parent="1" source="GL6uxgAYJIIQpSZrVHLU-53" target="5RYKfQcQYVmvj1kTy-Aw-14" edge="1">
          <mxGeometry relative="1" as="geometry">
            <Array as="points">
              <mxPoint x="-1470" y="3037" />
              <mxPoint x="-1470" y="2770" />
              <mxPoint x="390" y="2770" />
            </Array>
          </mxGeometry>
        </mxCell>
        <mxCell id="GL6uxgAYJIIQpSZrVHLU-122" style="edgeStyle=orthogonalEdgeStyle;rounded=0;orthogonalLoop=1;jettySize=auto;html=1;exitX=0;exitY=0.3333333333333333;exitDx=0;exitDy=0;exitPerimeter=0;entryX=0.5;entryY=1;entryDx=0;entryDy=0;strokeWidth=5;" parent="1" source="GL6uxgAYJIIQpSZrVHLU-53" target="5RYKfQcQYVmvj1kTy-Aw-15" edge="1">
          <mxGeometry relative="1" as="geometry">
            <Array as="points">
              <mxPoint x="-1470" y="3037" />
              <mxPoint x="-1470" y="2770" />
              <mxPoint x="580" y="2770" />
            </Array>
          </mxGeometry>
        </mxCell>
        <mxCell id="GL6uxgAYJIIQpSZrVHLU-123" style="edgeStyle=orthogonalEdgeStyle;rounded=0;orthogonalLoop=1;jettySize=auto;html=1;exitX=0;exitY=0.3333333333333333;exitDx=0;exitDy=0;exitPerimeter=0;entryX=0.5;entryY=1;entryDx=0;entryDy=0;strokeWidth=5;" parent="1" source="GL6uxgAYJIIQpSZrVHLU-53" target="5RYKfQcQYVmvj1kTy-Aw-41" edge="1">
          <mxGeometry relative="1" as="geometry">
            <Array as="points">
              <mxPoint x="-1470" y="3037" />
              <mxPoint x="-1470" y="2770" />
              <mxPoint x="750" y="2770" />
            </Array>
          </mxGeometry>
        </mxCell>
        <mxCell id="GL6uxgAYJIIQpSZrVHLU-124" style="edgeStyle=orthogonalEdgeStyle;rounded=0;orthogonalLoop=1;jettySize=auto;html=1;exitX=0;exitY=0.3333333333333333;exitDx=0;exitDy=0;exitPerimeter=0;entryX=0.5;entryY=1;entryDx=0;entryDy=0;strokeWidth=5;" parent="1" source="GL6uxgAYJIIQpSZrVHLU-53" target="5RYKfQcQYVmvj1kTy-Aw-24" edge="1">
          <mxGeometry relative="1" as="geometry">
            <Array as="points">
              <mxPoint x="-1470" y="3037" />
              <mxPoint x="-1470" y="2770" />
              <mxPoint x="930" y="2770" />
            </Array>
          </mxGeometry>
        </mxCell>
        <mxCell id="GL6uxgAYJIIQpSZrVHLU-126" style="edgeStyle=orthogonalEdgeStyle;rounded=0;orthogonalLoop=1;jettySize=auto;html=1;exitX=0;exitY=0.3333333333333333;exitDx=0;exitDy=0;exitPerimeter=0;entryX=0.5;entryY=1;entryDx=0;entryDy=0;strokeWidth=5;" parent="1" source="GL6uxgAYJIIQpSZrVHLU-53" target="GL6uxgAYJIIQpSZrVHLU-26" edge="1">
          <mxGeometry relative="1" as="geometry">
            <Array as="points">
              <mxPoint x="-1470" y="3037" />
              <mxPoint x="-1470" y="2770" />
              <mxPoint x="1310" y="2770" />
            </Array>
          </mxGeometry>
        </mxCell>
        <mxCell id="GL6uxgAYJIIQpSZrVHLU-128" style="edgeStyle=orthogonalEdgeStyle;rounded=0;orthogonalLoop=1;jettySize=auto;html=1;exitX=0;exitY=0.3333333333333333;exitDx=0;exitDy=0;exitPerimeter=0;entryX=0.5;entryY=1;entryDx=0;entryDy=0;strokeWidth=5;" parent="1" source="GL6uxgAYJIIQpSZrVHLU-53" target="5RYKfQcQYVmvj1kTy-Aw-46" edge="1">
          <mxGeometry relative="1" as="geometry">
            <Array as="points">
              <mxPoint x="-1470" y="3037" />
              <mxPoint x="-1470" y="2770" />
              <mxPoint x="1500" y="2770" />
            </Array>
          </mxGeometry>
        </mxCell>
        <mxCell id="GL6uxgAYJIIQpSZrVHLU-129" style="edgeStyle=orthogonalEdgeStyle;rounded=0;orthogonalLoop=1;jettySize=auto;html=1;exitX=0;exitY=0.3333333333333333;exitDx=0;exitDy=0;exitPerimeter=0;entryX=0.5;entryY=1;entryDx=0;entryDy=0;strokeWidth=5;" parent="1" source="GL6uxgAYJIIQpSZrVHLU-53" target="GL6uxgAYJIIQpSZrVHLU-13" edge="1">
          <mxGeometry relative="1" as="geometry">
            <Array as="points">
              <mxPoint x="-1470" y="3037" />
              <mxPoint x="-1470" y="2770" />
              <mxPoint x="1130" y="2770" />
            </Array>
          </mxGeometry>
        </mxCell>
        <mxCell id="RMpWVRfSquwFkgEpWFyZ-24" style="edgeStyle=orthogonalEdgeStyle;rounded=0;orthogonalLoop=1;jettySize=auto;html=1;exitX=0.75;exitY=0.1;exitDx=0;exitDy=0;exitPerimeter=0;strokeWidth=5;" parent="1" source="GL6uxgAYJIIQpSZrVHLU-53" target="5RYKfQcQYVmvj1kTy-Aw-47" edge="1">
          <mxGeometry relative="1" as="geometry" />
        </mxCell>
        <mxCell id="RMpWVRfSquwFkgEpWFyZ-25" style="edgeStyle=orthogonalEdgeStyle;rounded=0;orthogonalLoop=1;jettySize=auto;html=1;exitX=0.75;exitY=0.1;exitDx=0;exitDy=0;exitPerimeter=0;entryX=0;entryY=0.5;entryDx=0;entryDy=0;strokeWidth=5;" parent="1" source="GL6uxgAYJIIQpSZrVHLU-53" target="5RYKfQcQYVmvj1kTy-Aw-43" edge="1">
          <mxGeometry relative="1" as="geometry" />
        </mxCell>
        <mxCell id="RMpWVRfSquwFkgEpWFyZ-31" style="edgeStyle=orthogonalEdgeStyle;rounded=0;orthogonalLoop=1;jettySize=auto;html=1;exitX=1;exitY=1;exitDx=0;exitDy=0;exitPerimeter=0;strokeWidth=5;" parent="1" source="GL6uxgAYJIIQpSZrVHLU-53" target="5RYKfQcQYVmvj1kTy-Aw-45" edge="1">
          <mxGeometry relative="1" as="geometry">
            <Array as="points">
              <mxPoint x="-1240" y="3330" />
            </Array>
          </mxGeometry>
        </mxCell>
        <mxCell id="RMpWVRfSquwFkgEpWFyZ-33" style="edgeStyle=orthogonalEdgeStyle;rounded=0;orthogonalLoop=1;jettySize=auto;html=1;exitX=1;exitY=1;exitDx=0;exitDy=0;exitPerimeter=0;strokeWidth=5;" parent="1" source="GL6uxgAYJIIQpSZrVHLU-53" target="5RYKfQcQYVmvj1kTy-Aw-44" edge="1">
          <mxGeometry relative="1" as="geometry" />
        </mxCell>
        <mxCell id="RMpWVRfSquwFkgEpWFyZ-66" style="edgeStyle=orthogonalEdgeStyle;rounded=0;orthogonalLoop=1;jettySize=auto;html=1;exitX=0;exitY=1;exitDx=0;exitDy=0;exitPerimeter=0;entryX=0;entryY=0.5;entryDx=0;entryDy=0;strokeWidth=5;" parent="1" source="GL6uxgAYJIIQpSZrVHLU-53" target="GL6uxgAYJIIQpSZrVHLU-61" edge="1">
          <mxGeometry relative="1" as="geometry" />
        </mxCell>
        <mxCell id="GL6uxgAYJIIQpSZrVHLU-53" value="&lt;font&gt;MANAGER&lt;/font&gt;" style="shape=umlActor;verticalLabelPosition=bottom;verticalAlign=top;html=1;strokeWidth=5;fontStyle=1;fontSize=30;" parent="1" vertex="1">
          <mxGeometry x="-1460" y="2900" width="220" height="410" as="geometry" />
        </mxCell>
        <mxCell id="GL6uxgAYJIIQpSZrVHLU-61" value="&lt;font style=&quot;font-size: 24px;&quot;&gt;Checklist&lt;/font&gt;" style="ellipse;whiteSpace=wrap;html=1;strokeWidth=5;" parent="1" vertex="1">
          <mxGeometry x="-620" y="3490" width="140" height="70" as="geometry" />
        </mxCell>
        <mxCell id="GL6uxgAYJIIQpSZrVHLU-81" value="&lt;font style=&quot;font-size: 24px;&quot;&gt;Event&lt;/font&gt;&lt;div&gt;&lt;span style=&quot;color: rgba(0, 0, 0, 0); font-family: monospace; text-align: start; text-wrap-mode: nowrap;&quot;&gt;&lt;font size=&quot;3&quot;&gt;%3CmxGraphModel%3E%3Croot%3E%3CmxCell%20id%3D%220%22%2F%3E%3CmxCell%20id%3D%221%22%20parent%3D%220%22%2F%3E%3CmxCell%20id%3D%222%22%20value%3D%22Use%20Case%22%20style%3D%22ellipse%3BwhiteSpace%3Dwrap%3Bhtml%3D1%3B%22%20vertex%3D%221%22%20parent%3D%221%22%3E%3CmxGeometry%20x%3D%22-440%22%20y%3D%221960%22%20width%3D%22140%22%20height%3D%2270%22%20as%3D%22geometry%22%2F%3E%3C%2FmxCell%3E%3C%2Froot%3E%3C%2FmxGraphModel%3E&lt;/font&gt;&lt;/span&gt;&lt;/div&gt;" style="ellipse;whiteSpace=wrap;html=1;strokeWidth=5;" parent="1" vertex="1">
          <mxGeometry x="-1020" y="1530" width="140" height="70" as="geometry" />
        </mxCell>
        <mxCell id="RMpWVRfSquwFkgEpWFyZ-7" style="edgeStyle=orthogonalEdgeStyle;rounded=0;orthogonalLoop=1;jettySize=auto;html=1;exitX=0;exitY=1;exitDx=0;exitDy=0;exitPerimeter=0;entryX=1;entryY=0.5;entryDx=0;entryDy=0;strokeWidth=5;" parent="1" source="RMpWVRfSquwFkgEpWFyZ-1" target="5RYKfQcQYVmvj1kTy-Aw-28" edge="1">
          <mxGeometry relative="1" as="geometry" />
        </mxCell>
        <mxCell id="RMpWVRfSquwFkgEpWFyZ-8" style="edgeStyle=orthogonalEdgeStyle;rounded=0;orthogonalLoop=1;jettySize=auto;html=1;exitX=0;exitY=1;exitDx=0;exitDy=0;exitPerimeter=0;entryX=1;entryY=0.5;entryDx=0;entryDy=0;strokeWidth=5;" parent="1" source="RMpWVRfSquwFkgEpWFyZ-1" target="5RYKfQcQYVmvj1kTy-Aw-34" edge="1">
          <mxGeometry relative="1" as="geometry" />
        </mxCell>
        <mxCell id="RMpWVRfSquwFkgEpWFyZ-9" style="edgeStyle=orthogonalEdgeStyle;rounded=0;orthogonalLoop=1;jettySize=auto;html=1;exitX=0;exitY=1;exitDx=0;exitDy=0;exitPerimeter=0;entryX=1;entryY=0.5;entryDx=0;entryDy=0;strokeWidth=5;" parent="1" source="RMpWVRfSquwFkgEpWFyZ-1" target="5RYKfQcQYVmvj1kTy-Aw-35" edge="1">
          <mxGeometry relative="1" as="geometry" />
        </mxCell>
        <mxCell id="RMpWVRfSquwFkgEpWFyZ-37" style="edgeStyle=orthogonalEdgeStyle;rounded=0;orthogonalLoop=1;jettySize=auto;html=1;exitX=0;exitY=0.3333333333333333;exitDx=0;exitDy=0;exitPerimeter=0;entryX=1;entryY=1;entryDx=0;entryDy=0;strokeWidth=5;" parent="1" source="RMpWVRfSquwFkgEpWFyZ-1" target="5RYKfQcQYVmvj1kTy-Aw-14" edge="1">
          <mxGeometry relative="1" as="geometry">
            <Array as="points">
              <mxPoint x="440" y="2197" />
            </Array>
          </mxGeometry>
        </mxCell>
        <mxCell id="RMpWVRfSquwFkgEpWFyZ-39" style="edgeStyle=orthogonalEdgeStyle;rounded=0;orthogonalLoop=1;jettySize=auto;html=1;exitX=0;exitY=0.3333333333333333;exitDx=0;exitDy=0;exitPerimeter=0;entryX=1;entryY=1;entryDx=0;entryDy=0;strokeWidth=5;" parent="1" source="RMpWVRfSquwFkgEpWFyZ-1" target="5RYKfQcQYVmvj1kTy-Aw-15" edge="1">
          <mxGeometry relative="1" as="geometry">
            <Array as="points">
              <mxPoint x="630" y="2197" />
            </Array>
          </mxGeometry>
        </mxCell>
        <mxCell id="RMpWVRfSquwFkgEpWFyZ-40" style="edgeStyle=orthogonalEdgeStyle;rounded=0;orthogonalLoop=1;jettySize=auto;html=1;exitX=0;exitY=0.3333333333333333;exitDx=0;exitDy=0;exitPerimeter=0;entryX=1;entryY=1;entryDx=0;entryDy=0;strokeWidth=5;" parent="1" source="RMpWVRfSquwFkgEpWFyZ-1" target="5RYKfQcQYVmvj1kTy-Aw-41" edge="1">
          <mxGeometry relative="1" as="geometry">
            <Array as="points">
              <mxPoint x="800" y="2197" />
            </Array>
          </mxGeometry>
        </mxCell>
        <mxCell id="RMpWVRfSquwFkgEpWFyZ-41" style="edgeStyle=orthogonalEdgeStyle;rounded=0;orthogonalLoop=1;jettySize=auto;html=1;exitX=0;exitY=0.3333333333333333;exitDx=0;exitDy=0;exitPerimeter=0;entryX=1;entryY=1;entryDx=0;entryDy=0;strokeWidth=5;" parent="1" source="RMpWVRfSquwFkgEpWFyZ-1" target="5RYKfQcQYVmvj1kTy-Aw-24" edge="1">
          <mxGeometry relative="1" as="geometry">
            <Array as="points">
              <mxPoint x="980" y="2197" />
            </Array>
          </mxGeometry>
        </mxCell>
        <mxCell id="RMpWVRfSquwFkgEpWFyZ-42" style="edgeStyle=orthogonalEdgeStyle;rounded=0;orthogonalLoop=1;jettySize=auto;html=1;exitX=0;exitY=0.3333333333333333;exitDx=0;exitDy=0;exitPerimeter=0;entryX=1;entryY=1;entryDx=0;entryDy=0;strokeWidth=5;" parent="1" source="RMpWVRfSquwFkgEpWFyZ-1" target="GL6uxgAYJIIQpSZrVHLU-13" edge="1">
          <mxGeometry relative="1" as="geometry">
            <Array as="points">
              <mxPoint x="1180" y="2197" />
            </Array>
          </mxGeometry>
        </mxCell>
        <mxCell id="RMpWVRfSquwFkgEpWFyZ-43" style="edgeStyle=orthogonalEdgeStyle;rounded=0;orthogonalLoop=1;jettySize=auto;html=1;exitX=0;exitY=0.3333333333333333;exitDx=0;exitDy=0;exitPerimeter=0;entryX=1;entryY=1;entryDx=0;entryDy=0;strokeWidth=5;" parent="1" source="RMpWVRfSquwFkgEpWFyZ-1" target="GL6uxgAYJIIQpSZrVHLU-26" edge="1">
          <mxGeometry relative="1" as="geometry">
            <Array as="points">
              <mxPoint x="1360" y="2197" />
            </Array>
          </mxGeometry>
        </mxCell>
        <mxCell id="RMpWVRfSquwFkgEpWFyZ-44" style="edgeStyle=orthogonalEdgeStyle;rounded=0;orthogonalLoop=1;jettySize=auto;html=1;exitX=0;exitY=0.3333333333333333;exitDx=0;exitDy=0;exitPerimeter=0;entryX=1;entryY=1;entryDx=0;entryDy=0;strokeWidth=5;" parent="1" source="RMpWVRfSquwFkgEpWFyZ-1" target="5RYKfQcQYVmvj1kTy-Aw-46" edge="1">
          <mxGeometry relative="1" as="geometry">
            <Array as="points">
              <mxPoint x="1550" y="2197" />
            </Array>
          </mxGeometry>
        </mxCell>
        <mxCell id="RMpWVRfSquwFkgEpWFyZ-45" style="edgeStyle=orthogonalEdgeStyle;rounded=0;orthogonalLoop=1;jettySize=auto;html=1;exitX=1;exitY=1;exitDx=0;exitDy=0;exitPerimeter=0;entryX=1;entryY=0.5;entryDx=0;entryDy=0;strokeWidth=5;" parent="1" source="RMpWVRfSquwFkgEpWFyZ-1" target="GL6uxgAYJIIQpSZrVHLU-61" edge="1">
          <mxGeometry relative="1" as="geometry" />
        </mxCell>
        <mxCell id="RMpWVRfSquwFkgEpWFyZ-1" value="&lt;font&gt;CLIENT&lt;/font&gt;" style="shape=umlActor;verticalLabelPosition=bottom;verticalAlign=top;html=1;strokeWidth=5;fontStyle=1;fontSize=30;labelBackgroundColor=none;" parent="1" vertex="1">
          <mxGeometry x="2310" y="2060" width="220" height="410" as="geometry" />
        </mxCell>
        <mxCell id="RMpWVRfSquwFkgEpWFyZ-2" style="edgeStyle=orthogonalEdgeStyle;rounded=0;orthogonalLoop=1;jettySize=auto;html=1;exitX=1;exitY=0.5;exitDx=0;exitDy=0;entryX=0.5;entryY=0;entryDx=0;entryDy=0;entryPerimeter=0;strokeWidth=5;" parent="1" source="5RYKfQcQYVmvj1kTy-Aw-36" target="RMpWVRfSquwFkgEpWFyZ-1" edge="1">
          <mxGeometry relative="1" as="geometry" />
        </mxCell>
        <mxCell id="RMpWVRfSquwFkgEpWFyZ-5" style="edgeStyle=orthogonalEdgeStyle;rounded=0;orthogonalLoop=1;jettySize=auto;html=1;exitX=1;exitY=0.5;exitDx=0;exitDy=0;entryX=0.5;entryY=0;entryDx=0;entryDy=0;entryPerimeter=0;strokeWidth=5;" parent="1" source="5RYKfQcQYVmvj1kTy-Aw-38" target="RMpWVRfSquwFkgEpWFyZ-1" edge="1">
          <mxGeometry relative="1" as="geometry" />
        </mxCell>
        <mxCell id="RMpWVRfSquwFkgEpWFyZ-60" style="edgeStyle=orthogonalEdgeStyle;rounded=0;orthogonalLoop=1;jettySize=auto;html=1;exitX=0.5;exitY=1;exitDx=0;exitDy=0;strokeWidth=7;" parent="1" edge="1">
          <mxGeometry relative="1" as="geometry">
            <mxPoint x="235" y="3960" as="sourcePoint" />
            <mxPoint x="235" y="3960" as="targetPoint" />
          </mxGeometry>
        </mxCell>
        <mxCell id="RMpWVRfSquwFkgEpWFyZ-70" value="" style="swimlane;startSize=0;strokeWidth=16;" parent="1" vertex="1">
          <mxGeometry x="-1090" y="390" width="3210" height="3440" as="geometry" />
        </mxCell>
        <mxCell id="GL6uxgAYJIIQpSZrVHLU-16" value="&lt;font style=&quot;font-size: 24px;&quot;&gt;Backup and Data recovery&lt;/font&gt;" style="ellipse;whiteSpace=wrap;html=1;strokeWidth=5;" parent="RMpWVRfSquwFkgEpWFyZ-70" vertex="1">
          <mxGeometry x="470" y="1385" width="200" height="100" as="geometry" />
        </mxCell>
        <mxCell id="5RYKfQcQYVmvj1kTy-Aw-35" value="&lt;font style=&quot;font-size: 24px;&quot;&gt;Photo And Videography&lt;/font&gt;" style="ellipse;whiteSpace=wrap;html=1;strokeWidth=5;" parent="RMpWVRfSquwFkgEpWFyZ-70" vertex="1">
          <mxGeometry x="2780" y="2290" width="160" height="80" as="geometry" />
        </mxCell>
      </root>
    </mxGraphModel>
  </diagram>
</mxfile>
